<?xml version="1.0" encoding="UTF-8"?>
<svg version="1.1" xmlns="http://www.w3.org/2000/svg" width="4501" height="2605">
<path d="M0 0 C1.62161673 1.49484539 3.26302644 2.96845661 4.921875 4.421875 C10.8889301 9.65452331 16.21689013 15.20485579 21.3984375 21.2109375 C22.66107422 22.64179688 22.66107422 22.64179688 23.94921875 24.1015625 C31.73263526 33.01276274 38.63333514 42.51263849 45.3984375 52.2109375 C45.86169434 52.87416016 46.32495117 53.53738281 46.80224609 54.22070312 C89.4369321 115.6698862 94.30686834 189.30807812 81.50585938 261.26025391 C66.56324589 341.59304335 34.32744287 416.584234 -11.27197266 507.74755859 C-12.81223164 510.6012518 -14.33772212 513.46264099 -15.86328125 516.32421875 C-37.35503385 556.5516805 -60.51439366 595.92714315 -84.87939453 634.48144531 C-86.4806899 637.01936454 -88.07165235 639.56343789 -89.66015625 642.109375 C-100.61089486 659.57436357 -112.1680782 676.64698692 -123.63061523 693.77789307 C-126.95462323 698.74582204 -130.27366006 703.71695638 -133.58203125 708.6953125 C-140.82917077 719.59937263 -148.12318094 730.46396099 -155.6015625 741.2109375 C-156.13458984 741.97825195 -156.66761719 742.74556641 -157.21679688 743.53613281 C-164.57420654 754.11922551 -172.0261125 764.62768827 -179.59765625 775.05859375 C-181.43910816 777.59718745 -183.26789134 780.14333077 -185.07421875 782.70703125 C-191.37906329 791.65178367 -197.99297207 800.34493205 -204.6484375 809.03125 C-207.56086921 812.8358408 -210.43524067 816.66561903 -213.28588867 820.51660156 C-218.47353759 827.51786169 -223.88329292 834.29273331 -229.45703125 840.99047852 C-233.1261517 845.40184499 -236.71082559 849.86412858 -240.2265625 854.3984375 C-244.41709629 859.79088942 -248.78483639 865.00204256 -253.25561523 870.16381836 C-256.32969045 873.71475843 -259.33520172 877.30842443 -262.2890625 880.9609375 C-265.84485342 885.34320955 -269.56888781 889.53053512 -273.37109375 893.69921875 C-275.59675601 896.20552494 -277.69677811 898.78018143 -279.7890625 901.3984375 C-284.69507903 907.4684474 -290.03159763 913.10071226 -295.3828125 918.77734375 C-298.26120354 921.83399131 -301.04103213 924.95976908 -303.78125 928.140625 C-307.27821319 932.11785782 -310.90451141 935.97891809 -314.50390625 939.86328125 C-317.32132651 942.90393257 -320.11921265 945.96201479 -322.9140625 949.0234375 C-332.67161351 959.67973382 -342.48345661 970.26796048 -352.8203125 980.3671875 C-354.84703973 982.43945916 -356.72128294 984.49833592 -358.59399414 986.69897461 C-363.32063701 992.11955951 -368.41558028 997.16944716 -373.50390625 1002.24609375 C-374.55105386 1003.29391696 -375.59805316 1004.3418884 -376.64491272 1005.38999939 C-378.82765576 1007.57420738 -381.01217275 1009.75662082 -383.19799805 1011.93774414 C-385.97942674 1014.71347631 -388.75634026 1017.49367532 -391.53192806 1020.27524662 C-393.68957271 1022.43652953 -395.84962397 1024.59539464 -398.01037788 1026.75356865 C-399.0344202 1027.77695071 -400.05773924 1028.80105711 -401.08027458 1029.8259449 C-406.2263591 1034.98127223 -411.41254799 1040.03270092 -416.94483948 1044.77659607 C-418.99673312 1046.55306445 -420.91945801 1048.43072908 -422.8203125 1050.3671875 C-423.87798828 1051.43646484 -423.87798828 1051.43646484 -424.95703125 1052.52734375 C-426.01857422 1053.60822266 -426.01857422 1053.60822266 -427.1015625 1054.7109375 C-431.87530369 1059.57163208 -436.70357182 1064.2568526 -441.86914062 1068.70117188 C-443.87671091 1070.45072298 -445.75223965 1072.2955674 -447.6015625 1074.2109375 C-450.07118305 1076.76875878 -452.64422263 1079.14050586 -455.328125 1081.46875 C-459.65542756 1085.22735569 -463.82101136 1089.13942288 -467.9765625 1093.0859375 C-473.32901713 1098.14678721 -478.70673523 1103.16580179 -484.20703125 1108.06640625 C-487.07051827 1110.63093215 -489.89844365 1113.23255819 -492.7265625 1115.8359375 C-496.64462433 1119.43833487 -500.59754038 1122.99224824 -504.62109375 1126.4765625 C-506.91289405 1128.48358288 -509.16153002 1130.53496601 -511.4140625 1132.5859375 C-514.85534455 1135.69622601 -518.36477548 1138.67572062 -521.9765625 1141.5859375 C-526.52936757 1145.26665597 -530.83573661 1149.13742398 -535.1184082 1153.12231445 C-539.22917207 1156.92478764 -543.52422773 1160.45357049 -547.88671875 1163.96484375 C-550.70829745 1166.2992434 -553.40746962 1168.73084348 -556.1015625 1171.2109375 C-560.49184819 1175.24726805 -565.0133187 1179.05124279 -569.65234375 1182.796875 C-573.01525275 1185.54956078 -576.31072562 1188.37290266 -579.6015625 1191.2109375 C-584.53170289 1195.45648358 -589.50841199 1199.63156855 -594.55859375 1203.734375 C-598.41979756 1206.8768695 -602.26042522 1210.043971 -606.1015625 1213.2109375 C-612.59078137 1218.55753878 -619.08571897 1223.89678643 -625.6015625 1229.2109375 C-626.19259766 1229.69385254 -626.78363281 1230.17676758 -627.39257812 1230.67431641 C-635.00480382 1236.89224247 -642.64375032 1243.0690033 -650.38867188 1249.12109375 C-654.59227261 1252.40797704 -658.7571775 1255.74025839 -662.9140625 1259.0859375 C-668.95556972 1263.9420009 -675.09085986 1268.66394527 -681.26269531 1273.3527832 C-685.95336769 1276.92518137 -690.57691133 1280.56931595 -695.1640625 1284.2734375 C-700.75732137 1288.78275428 -706.44293764 1293.14468491 -712.20605469 1297.43432617 C-717.81019615 1301.60658132 -723.3648741 1305.84095025 -728.9140625 1310.0859375 C-737.9532959 1316.98990601 -747.07872597 1323.76761628 -756.25439453 1330.48876953 C-758.63278161 1332.23384363 -761.00655384 1333.98501367 -763.37890625 1335.73828125 C-773.33593289 1343.09614523 -783.34102876 1350.38304024 -793.38964844 1357.61523438 C-795.57088577 1359.18880692 -797.74712927 1360.76903344 -799.921875 1362.3515625 C-808.59257676 1368.65505283 -817.32297898 1374.87100169 -826.1015625 1381.0234375 C-827.11178467 1381.73604736 -828.12200684 1382.44865723 -829.1628418 1383.18286133 C-830.10168213 1383.83794678 -831.04052246 1384.49303223 -832.0078125 1385.16796875 C-832.84634766 1385.75553955 -833.68488281 1386.34311035 -834.54882812 1386.94848633 C-836.6015625 1388.2109375 -836.6015625 1388.2109375 -838.6015625 1388.2109375 C-838.87291016 1389.07420654 -839.14425781 1389.93747559 -839.42382812 1390.8269043 C-840.57562743 1394.13641719 -841.92903298 1397.19792828 -843.4453125 1400.35546875 C-844.02876301 1401.57994478 -844.61191851 1402.8045614 -845.19482422 1404.02929688 C-845.50417908 1404.67664795 -845.81353394 1405.32399902 -846.13226318 1405.9909668 C-866.60507841 1448.91929291 -885.36571507 1492.88616634 -902.6015625 1537.2109375 C-902.89742249 1537.97067871 -903.19328247 1538.73041992 -903.49810791 1539.51318359 C-913.76040521 1565.88617702 -923.51405595 1592.40985673 -932.6015625 1619.2109375 C-932.84908264 1619.93911682 -933.09660278 1620.66729614 -933.35162354 1621.4175415 C-945.67470757 1657.72023478 -956.00919891 1694.62560039 -963.6015625 1732.2109375 C-963.82279785 1733.30196777 -964.0440332 1734.39299805 -964.27197266 1735.51708984 C-965.57036039 1742.05770483 -966.66692088 1748.60883608 -967.6015625 1755.2109375 C-967.82368408 1756.74572754 -967.82368408 1756.74572754 -968.05029297 1758.31152344 C-972.07000755 1787.25866077 -973.77227747 1819.4647573 -967.6015625 1848.2109375 C-967.45702637 1848.90525879 -967.31249023 1849.59958008 -967.16357422 1850.31494141 C-963.3087821 1868.15456073 -955.76113387 1885.27301892 -940.6015625 1896.2109375 C-915.85275889 1911.50514198 -884.61540801 1906.91953808 -857.7265625 1900.7109375 C-832.47241436 1894.55651528 -808.21283035 1884.95979222 -784.6015625 1874.2109375 C-783.52825684 1873.72512207 -782.45495117 1873.23930664 -781.34912109 1872.73876953 C-746.46751158 1856.83130994 -713.94461401 1835.58370385 -683.6015625 1812.2109375 C-682.98410156 1811.73688477 -682.36664062 1811.26283203 -681.73046875 1810.77441406 C-677.651085 1807.631534 -673.61546115 1804.4369063 -669.6015625 1801.2109375 C-668.9612207 1800.6967627 -668.32087891 1800.18258789 -667.66113281 1799.65283203 C-659.08246696 1792.75133889 -650.59492049 1785.75052935 -642.22558594 1778.59667969 C-640.53442029 1777.15364658 -638.83781631 1775.71718933 -637.140625 1774.28125 C-630.09647352 1768.30404021 -623.23618136 1762.16771083 -616.4765625 1755.87109375 C-614.25627293 1753.81672256 -612.01938944 1751.80757101 -609.7265625 1749.8359375 C-601.00025049 1742.27932264 -592.57546654 1734.30931663 -584.4931488 1726.07008362 C-582.67519723 1724.28330941 -580.80061404 1722.62053511 -578.86352539 1720.96459961 C-574.68860657 1717.33337275 -570.75301724 1713.50720828 -566.84765625 1709.58984375 C-565.79083397 1708.53445656 -565.79083397 1708.53445656 -564.71266174 1707.45774841 C-563.23502883 1705.98079102 -561.75863793 1704.50259008 -560.28344727 1703.02319336 C-558.04489769 1700.77928665 -555.80105777 1698.54077046 -553.55664062 1696.30273438 C-552.11165846 1694.85709132 -550.66698658 1693.41113805 -549.22265625 1691.96484375 C-548.56204697 1691.3062587 -547.90143768 1690.64767365 -547.22080994 1689.96913147 C-543.38914897 1686.11843006 -539.73951412 1682.16334994 -536.2066803 1678.03623962 C-532.95156367 1674.33459772 -529.3742058 1670.94401287 -525.8515625 1667.5 C-522.1935451 1663.8909739 -518.76283899 1660.15793765 -515.40527344 1656.26855469 C-512.27678574 1652.69967349 -508.99433692 1649.27683904 -505.7265625 1645.8359375 C-499.92797902 1639.70255209 -494.21330778 1633.51589837 -488.6015625 1627.2109375 C-487.16408163 1625.6275868 -485.72658095 1624.04425408 -484.2890625 1622.4609375 C-480.14774976 1617.86509043 -476.13078674 1613.17053137 -472.12060547 1608.46069336 C-468.95150177 1604.75063384 -465.71817176 1601.11486061 -462.4140625 1597.5234375 C-458.46246955 1593.21431947 -454.74703412 1588.76604521 -451.07421875 1584.21875 C-448.18475161 1580.70391635 -445.21453259 1577.26702211 -442.2265625 1573.8359375 C-433.84354125 1564.19747032 -425.56636551 1554.52889224 -417.72607422 1544.44116211 C-414.6101016 1540.44795741 -411.39588269 1536.55791748 -408.1015625 1532.7109375 C-403.38252092 1527.19465312 -398.87688566 1521.5361862 -394.41796875 1515.80859375 C-392.51006692 1513.36073231 -390.57998106 1510.9331207 -388.62890625 1508.51953125 C-388.12351318 1507.89353027 -387.61812012 1507.2675293 -387.09741211 1506.62255859 C-386.15950818 1505.46315198 -385.21927268 1504.30562345 -384.27563477 1503.15087891 C-383.31727135 1501.96413734 -382.3743218 1500.76486472 -381.44287109 1499.55688477 C-380.42383572 1498.25856723 -379.39402924 1496.96777547 -378.3225708 1495.71237183 C-370.29155045 1486.29894006 -366.84011631 1478.39892265 -365.29544067 1466.15710449 C-364.73637972 1461.75888008 -364.02668163 1457.38366113 -363.33984375 1453.00390625 C-363.20285568 1452.10697052 -363.06586761 1451.21003479 -362.92472839 1450.28591919 C-361.46459559 1440.90128818 -359.40012469 1431.68754346 -357.1640625 1422.4609375 C-356.97177063 1421.66603912 -356.77947876 1420.87114075 -356.58135986 1420.05215454 C-352.99577658 1405.31987188 -349.07520961 1390.70031879 -344.6015625 1376.2109375 C-344.38111267 1375.49480286 -344.16066284 1374.77866821 -343.93353271 1374.04083252 C-335.89932452 1348.00315857 -326.77579897 1322.48732763 -316.6015625 1297.2109375 C-316.32161438 1296.51502502 -316.04166626 1295.81911255 -315.75323486 1295.10211182 C-301.04846485 1258.63624499 -284.66031121 1222.48455642 -266.02246094 1187.86132812 C-264.38244966 1184.80222804 -262.76153957 1181.73332279 -261.140625 1178.6640625 C-253.57404063 1164.37778134 -245.7191917 1150.30297322 -237.47753906 1136.39208984 C-235.44847803 1132.95134736 -233.4409791 1129.49863922 -231.4375 1126.04296875 C-218.57349773 1103.87571098 -204.79439089 1082.42278034 -190.6015625 1061.0859375 C-190.01490814 1060.20314117 -189.42825378 1059.32034485 -188.82382202 1058.41079712 C-164.35374191 1021.62167767 -138.02877135 986.23497765 -110.078125 952.01953125 C-108.77108709 950.4185827 -107.46732894 948.81495774 -106.1640625 947.2109375 C-100.87304623 940.71054608 -95.4859832 934.29620439 -90.05175781 927.91552734 C-88.58353211 926.18974421 -87.11982717 924.46019478 -85.65625 922.73046875 C-80.19678627 916.29827007 -74.64086989 909.98266821 -68.87329102 903.82421875 C-66.26630041 901.03754661 -63.71782263 898.21281163 -61.21484375 895.33203125 C-57.60171345 891.1829821 -53.87123136 887.15516801 -50.1015625 883.1484375 C-49.47636719 882.48005859 -48.85117188 881.81167969 -48.20703125 881.12304688 C-45.21162776 877.93229099 -42.18886831 874.78554226 -39.0703125 871.71484375 C-36.74226782 869.40797704 -34.55657624 867.03755073 -32.42944336 864.54492188 C-28.43653038 859.95745619 -24.191465 855.65671056 -19.88671875 851.36328125 C-19.07214706 850.54775284 -18.25757538 849.73222443 -17.4183197 848.89198303 C-15.70597057 847.17895742 -13.99237408 845.46717785 -12.27758789 843.7565918 C-9.67154235 841.15590198 -7.07087728 838.54991794 -4.47070312 835.94335938 C-2.79719551 834.27051264 -1.12337768 832.59797616 0.55078125 830.92578125 C1.3187352 830.15580307 2.08668915 829.38582489 2.87791443 828.59251404 C7.03111544 824.45706211 11.26682999 820.48421512 15.71839905 816.67079163 C17.88759953 814.78588461 19.89803515 812.77289069 21.8984375 810.7109375 C25.18698278 807.38324287 28.56225374 804.25757309 32.11328125 801.21484375 C34.46321834 799.15412969 36.74876876 797.03619563 39.03271484 794.90307617 C44.43769072 789.85586347 49.94904545 785.05436242 55.71875 780.421875 C58.53097065 778.101588 61.21641013 775.68022616 63.8984375 773.2109375 C68.7048447 768.79716638 73.66953833 764.6473344 78.74804688 760.55224609 C80.6468255 759.00906713 82.53099489 757.44902953 84.4140625 755.88671875 C92.32404578 749.32586394 100.28129082 742.87471824 108.4765625 736.671875 C110.74937988 734.94416423 113.01131797 733.20263075 115.2734375 731.4609375 C125.43902791 723.64917817 135.6977989 716.0317578 146.23095703 708.72363281 C148.50412258 707.13717936 150.76273852 705.53152338 153.01953125 703.921875 C172.52261198 690.0551234 192.75456305 677.30558258 213.3984375 665.2109375 C214.56197754 664.52499512 214.56197754 664.52499512 215.74902344 663.82519531 C286.75506639 622.0794001 364.1893898 590.61613507 445.9609375 578.3984375 C447.25338379 578.20354736 448.54583008 578.00865723 449.87744141 577.80786133 C470.77308805 574.8397743 491.6192196 573.82918915 512.7109375 573.8984375 C513.87065063 573.90026031 515.03036377 573.90208313 516.22521973 573.90396118 C533.12687622 573.94862606 549.70584903 574.32123399 566.3984375 577.2109375 C567.41502441 577.37722656 568.43161133 577.54351563 569.47900391 577.71484375 C634.86074497 588.63370572 683.65544344 623.85260386 729.2109375 670.0859375 C734.96890773 675.90620416 740.95724813 681.14938709 747.3984375 686.2109375 C748.61325921 687.21171758 749.82531289 688.21586352 751.03515625 689.22265625 C759.10147141 695.91514889 767.37496326 702.13253123 775.9765625 708.1171875 C802.9876672 726.93065165 830.39301475 747.76994676 850.3984375 774.2109375 C850.80835937 774.74444824 851.21828125 775.27795898 851.640625 775.82763672 C883.11419067 816.90389902 899.36413638 861.4549795 899.6015625 913.4921875 C899.60848618 914.53219406 899.61540985 915.57220062 899.62254333 916.64372253 C899.63976892 919.99949964 899.64613656 923.3551182 899.6484375 926.7109375 C899.64977692 927.86244293 899.65111633 929.01394836 899.65249634 930.2003479 C899.64743148 950.35413495 898.65128742 970.18980483 896.3984375 990.2109375 C896.25438477 991.50789551 896.11033203 992.80485352 895.96191406 994.14111328 C895.16994624 1001.17274594 894.32550561 1008.19582404 893.3984375 1015.2109375 C893.94330811 1015.12005859 894.48817871 1015.02917969 895.04956055 1014.93554688 C946.13582108 1006.6932709 946.13582108 1006.6932709 966.3984375 1018.8984375 C974.86073635 1025.31811249 980.61040364 1032.65376369 982.3984375 1043.2109375 C983.40028287 1056.83218127 979.74978224 1068.20441106 971.04736328 1078.86621094 C967.64433645 1082.79023718 964.03656875 1086.50632263 960.3984375 1090.2109375 C959.61082031 1091.03722656 958.82320312 1091.86351562 958.01171875 1092.71484375 C953.36362242 1097.51314787 948.42375427 1101.79600335 943.203125 1105.9609375 C941.37110629 1107.43063496 939.56224808 1108.92981079 937.78125 1110.4609375 C920.58688343 1125.15523297 899.65742308 1134.01871869 878.51953125 1141.484375 C877.67487305 1141.79101074 876.83021484 1142.09764648 875.95996094 1142.41357422 C873.3984375 1143.2109375 873.3984375 1143.2109375 870.70410156 1143.60595703 C867.8045812 1144.09922975 865.87742854 1144.61128353 863.3984375 1146.2109375 C861.18097458 1150.00644447 860.00448055 1153.98389453 858.85894775 1158.19491577 C857.83334083 1161.94522875 856.66007728 1165.65033395 855.5078125 1169.36328125 C855.2657608 1170.15533463 855.02370911 1170.947388 854.77432251 1171.76344299 C851.81995517 1181.31667577 848.19324395 1190.60147903 844.5234375 1199.8984375 C844.0087088 1201.2065741 844.0087088 1201.2065741 843.48358154 1202.5411377 C837.1533481 1218.59634122 830.47058945 1234.46745597 823.3984375 1250.2109375 C823.0991333 1250.87917542 822.7998291 1251.54741333 822.49145508 1252.23590088 C804.89770865 1291.51167682 786.26238108 1330.29014284 764.85644531 1367.64599609 C763.10589082 1370.72558843 761.40106357 1373.82853395 759.70117188 1376.9362793 C733.55513858 1424.65929404 702.62290027 1470.98189149 668.71630859 1513.55029297 C667.37975516 1515.23447905 666.05356229 1516.92631761 664.73046875 1518.62109375 C659.31277804 1525.55867959 653.80926259 1532.41905164 648.24365234 1539.23852539 C644.66481624 1543.63092683 641.13739092 1548.0593758 637.6484375 1552.5234375 C630.78124726 1561.30240445 623.69825273 1569.88791907 616.47998047 1578.37963867 C613.61976017 1581.74943845 610.80584207 1585.1512476 608.0234375 1588.5859375 C600.10090182 1598.31163094 591.79681229 1607.72491296 583.375 1617.01953125 C581.52887189 1619.06632546 579.70850466 1621.13225307 577.8984375 1623.2109375 C570.22023382 1632.01621695 562.31983 1640.6247101 554.3984375 1649.2109375 C553.8944342 1649.75850708 553.39043091 1650.30607666 552.87115479 1650.87023926 C542.30453425 1662.32732164 531.36789695 1673.39845777 520.3347168 1684.4050293 C517.9189313 1686.81505313 515.50775594 1689.22963222 513.09781742 1691.64550114 C510.75384907 1693.99397581 508.40605339 1696.33860881 506.05859375 1698.68359375 C505.20636734 1699.53784439 504.35414093 1700.39209503 503.47608948 1701.27223206 C499.1365096 1705.59496317 494.72746044 1709.76528831 490.08338928 1713.75956726 C488.17091598 1715.40691816 486.32726808 1717.11414597 484.50390625 1718.859375 C483.86412842 1719.4675708 483.22435059 1720.0757666 482.56518555 1720.70239258 C481.91203369 1721.3239624 481.25888184 1721.94553223 480.5859375 1722.5859375 C475.21077674 1727.66701273 469.76302129 1732.49318514 463.9765625 1737.1015625 C461.16824045 1739.39928054 458.50374105 1741.81428898 455.8359375 1744.2734375 C451.75882497 1748.01749013 447.59093281 1751.54735903 443.23828125 1754.96484375 C441.06634758 1756.68267299 438.91665203 1758.41807631 436.77734375 1760.17578125 C421.78189338 1772.49181128 406.19120159 1783.94246392 390.3984375 1795.2109375 C389.5935791 1795.78634277 388.7887207 1796.36174805 387.95947266 1796.95458984 C376.02622091 1805.46558148 363.89172667 1813.54556347 351.3984375 1821.2109375 C350.75632324 1821.60587402 350.11420898 1822.00081055 349.45263672 1822.40771484 C345.12953768 1825.05757831 340.77300295 1827.64707812 336.3984375 1830.2109375 C335.6549707 1830.64841309 334.91150391 1831.08588867 334.14550781 1831.53662109 C247.98235371 1882.0648303 151.70021334 1914.38584978 51.4609375 1917.7734375 C49.72166992 1917.83821289 49.72166992 1917.83821289 47.94726562 1917.90429688 C-12.97047992 1920.03760314 -72.30070914 1910.71708523 -129.6015625 1890.2109375 C-130.61428223 1889.84887207 -131.62700195 1889.48680664 -132.67041016 1889.11376953 C-156.39427038 1880.46815029 -179.27591398 1868.66015151 -200.6015625 1855.2109375 C-201.28814941 1854.77861816 -201.97473633 1854.34629883 -202.68212891 1853.90087891 C-218.4778694 1843.8569996 -233.57296843 1832.59932456 -247.6015625 1820.2109375 C-248.44589844 1819.46585938 -249.29023438 1818.72078125 -250.16015625 1817.953125 C-252.65738811 1815.7235964 -255.1297664 1813.46861144 -257.6015625 1811.2109375 C-258.57351563 1810.34339844 -259.54546875 1809.47585938 -260.546875 1808.58203125 C-283.01436857 1788.38999278 -303.15380184 1764.75217086 -319.18359375 1739.1328125 C-319.65152344 1738.49859375 -320.11945313 1737.864375 -320.6015625 1737.2109375 C-321.2615625 1737.2109375 -321.9215625 1737.2109375 -322.6015625 1737.2109375 C-324.17141121 1738.74110798 -324.17141121 1738.74110798 -325.7890625 1740.73828125 C-335.78710077 1752.48597621 -346.71207833 1763.41997367 -357.6015625 1774.3359375 C-358.08979492 1774.82675812 -358.57802734 1775.31757874 -359.08105469 1775.82327271 C-364.15354399 1780.91700413 -369.26129047 1785.89622415 -374.72021484 1790.57470703 C-378.05091694 1793.47145832 -381.21703056 1796.54349253 -384.4140625 1799.5859375 C-389.7940482 1804.67157369 -395.24660038 1809.50172286 -401.0390625 1814.11328125 C-403.76303209 1816.34311611 -406.33491435 1818.69047868 -408.9140625 1821.0859375 C-413.54854477 1825.35071748 -418.37030205 1829.25814563 -423.34570312 1833.109375 C-427.10657446 1836.02312951 -430.78201795 1839.01113814 -434.4140625 1842.0859375 C-444.95703976 1850.92753483 -456.04112501 1859.09540321 -467.1015625 1867.2734375 C-467.79902588 1867.7900293 -468.49648926 1868.30662109 -469.21508789 1868.83886719 C-482.94255863 1878.93773405 -496.97491286 1888.58781726 -511.1640625 1898.0234375 C-511.9432605 1898.54218445 -512.7224585 1899.0609314 -513.52526855 1899.59539795 C-548.68270691 1922.98203637 -585.04598029 1943.92402918 -622.6015625 1963.2109375 C-624.18203369 1964.02667236 -624.18203369 1964.02667236 -625.79443359 1964.85888672 C-696.23052971 2001.10737521 -772.74245185 2028.53792527 -897.6015625 2049.2109375 C-898.66455566 2049.32211914 -898.66455566 2049.32211914 -899.74902344 2049.43554688 C-936.31654263 2053.22006677 -974.0307851 2054.57804577 -1010.6015625 2050.2109375 C-1011.68566406 2050.08734863 -1012.76976563 2049.96375977 -1013.88671875 2049.83642578 C-1064.21451852 2043.93192709 -1114.96571793 2028.33514095 -1155.6015625 1997.2109375 C-1156.94927734 1996.18033203 -1156.94927734 1996.18033203 -1158.32421875 1995.12890625 C-1163.5099619 1991.06527135 -1168.42721586 1986.74481294 -1173.2890625 1982.30078125 C-1175.25141764 1980.52736909 -1177.24817659 1978.82943505 -1179.2890625 1977.1484375 C-1183.15169446 1973.850413 -1186.33261793 1970.08524218 -1189.6015625 1966.2109375 C-1190.43816406 1965.2621875 -1191.27476562 1964.3134375 -1192.13671875 1963.3359375 C-1199.06929925 1955.42624039 -1205.03940592 1947.13224326 -1210.6015625 1938.2109375 C-1211.02324707 1937.53514648 -1211.44493164 1936.85935547 -1211.87939453 1936.16308594 C-1218.24930342 1925.85633681 -1223.66179174 1915.26760327 -1228.6015625 1904.2109375 C-1229.05789063 1903.19902344 -1229.51421875 1902.18710938 -1229.984375 1901.14453125 C-1230.8674856 1899.17142749 -1231.73699555 1897.19223677 -1232.6015625 1895.2109375 C-1238.89533516 1901.36613873 -1238.89533516 1901.36613873 -1244.7890625 1907.8984375 C-1248.76137517 1912.54055465 -1253.13193229 1916.76996775 -1257.47387695 1921.06152344 C-1260.60007457 1924.16469429 -1263.62915896 1927.28272779 -1266.4765625 1930.6484375 C-1269.14008934 1933.78548023 -1272.03063891 1936.37705673 -1275.16796875 1939.03125 C-1278.44306513 1941.9646429 -1281.51137842 1945.0848874 -1284.6015625 1948.2109375 C-1288.82159049 1952.47087119 -1293.04577849 1956.63790126 -1297.625 1960.515625 C-1300.11016444 1962.6471692 -1302.50596396 1964.86777349 -1304.9140625 1967.0859375 C-1309.38029764 1971.15953659 -1313.97077629 1975.01921453 -1318.67578125 1978.8125 C-1321.32387689 1980.98330203 -1323.91302673 1983.20388373 -1326.49389648 1985.453125 C-1333.5087763 1991.55766181 -1340.76591514 1997.25911952 -1348.1875 2002.859375 C-1351.15750869 2005.10235717 -1354.097214 2007.37778984 -1357.015625 2009.6875 C-1366.15349936 2016.9139621 -1375.48332266 2023.68730334 -1385.1484375 2030.19140625 C-1389.0283328 2032.80464924 -1392.82247749 2035.51749634 -1396.6015625 2038.2734375 C-1404.19703527 2043.7664034 -1412.12891823 2048.70870943 -1420.09082031 2053.64892578 C-1422.56703873 2055.18945918 -1425.03423406 2056.74358471 -1427.5 2058.30078125 C-1450.15101734 2072.54775006 -1473.45450903 2085.45426048 -1497.31396484 2097.54150391 C-1500.25708073 2099.03601055 -1503.19050363 2100.54753895 -1506.12109375 2102.06640625 C-1577.640668 2138.86538967 -1656.65800073 2164.17827558 -1807.1015625 2180.3984375 C-1808.02187256 2180.39783325 -1808.94218262 2180.397229 -1809.89038086 2180.39660645 C-1879.73549268 2180.27258524 -1949.89673933 2163.45006823 -2001.6015625 2114.2109375 C-2002.30796875 2113.55738281 -2003.014375 2112.90382813 -2003.7421875 2112.23046875 C-2024.39155784 2092.54641451 -2038.98773973 2065.10881803 -2047.6015625 2038.2109375 C-2047.86807617 2037.38126465 -2048.13458984 2036.5515918 -2048.40917969 2035.69677734 C-2051.47674147 2025.96679701 -2053.97981405 2016.17853862 -2055.8515625 2006.1484375 C-2056.00262451 2005.34817139 -2056.15368652 2004.54790527 -2056.30932617 2003.72338867 C-2059.24418136 1986.87404239 -2059.98081631 1969.96849215 -2059.9140625 1952.8984375 C-2059.91190735 1951.89725891 -2059.9097522 1950.89608032 -2059.90753174 1949.86456299 C-2059.8478657 1932.47760223 -2059.02195354 1915.44964648 -2056.6015625 1898.2109375 C-2056.50681641 1897.53105774 -2056.41207031 1896.85117798 -2056.31445312 1896.1506958 C-2046.17933713 1824.01872746 -2021.75321876 1755.23249058 -1991.6015625 1689.2109375 C-1991.13218262 1688.17598145 -1990.66280273 1687.14102539 -1990.17919922 1686.07470703 C-1974.19599082 1650.85032209 -1957.24502499 1615.8865002 -1938.97851562 1581.78515625 C-1937.35133806 1578.74314202 -1935.73460783 1575.69565045 -1934.1171875 1572.6484375 C-1927.6913046 1560.56211376 -1921.15958752 1548.54943678 -1914.37792969 1536.65771484 C-1910.50318059 1529.85017742 -1906.74927268 1522.98436814 -1903.0390625 1516.0859375 C-1897.5851059 1505.96018086 -1891.95804123 1495.94805891 -1886.20556641 1485.98925781 C-1884.50405678 1483.04204631 -1882.80835905 1480.09154002 -1881.11328125 1477.140625 C-1860.70241547 1441.64109622 -1839.87691893 1406.37940425 -1818.55664062 1371.41845703 C-1816.69887769 1368.37059371 -1814.84475768 1365.32055298 -1812.9921875 1362.26953125 C-1799.96126161 1340.81479423 -1786.7890504 1319.44976981 -1773.46044922 1298.17871094 C-1770.33691846 1293.19189193 -1767.21957075 1288.20121056 -1764.1015625 1283.2109375 C-1762.85159176 1281.21091922 -1761.60159176 1279.21091921 -1760.3515625 1277.2109375 C-1759.7328125 1276.2209375 -1759.1140625 1275.2309375 -1758.4765625 1274.2109375 C-1755.6640625 1269.7109375 -1755.6640625 1269.7109375 -1752.8515625 1265.2109375 C-1752.23249023 1264.22037354 -1751.61341797 1263.22980957 -1750.97558594 1262.20922852 C-1749.7290168 1260.21481533 -1748.48227278 1258.22051144 -1747.23535156 1256.22631836 C-1744.05639626 1251.14173473 -1740.88076222 1246.05512533 -1737.7109375 1240.96484375 C-1731.34096683 1230.74160241 -1724.938998 1220.54521083 -1718.36254883 1210.45336914 C-1716.22157089 1207.16670036 -1714.09054573 1203.87377991 -1711.96400452 1200.57775879 C-1705.37595166 1190.37148565 -1698.72013305 1180.21018056 -1692.04077148 1170.06347656 C-1690.79017274 1168.16260551 -1689.54082216 1166.26091269 -1688.29272461 1164.35839844 C-1681.07567989 1153.35757782 -1673.76407066 1142.45153211 -1666.11132812 1131.74829102 C-1663.18717458 1127.65263825 -1660.41101446 1123.4680034 -1657.63671875 1119.26953125 C-1648.8658446 1106.08796799 -1639.70260143 1093.1652179 -1630.6015625 1080.2109375 C-1630.07916992 1079.46666504 -1629.55677734 1078.72239258 -1629.01855469 1077.95556641 C-1622.89547483 1069.23559191 -1616.70780287 1060.56585584 -1610.45458984 1051.9387207 C-1606.81590308 1046.91234402 -1603.22779518 1041.85314819 -1599.6640625 1036.7734375 C-1593.70053084 1028.2864941 -1587.55075197 1019.94259491 -1581.375 1011.609375 C-1579.63183145 1009.25187393 -1577.89654952 1006.8887965 -1576.1640625 1004.5234375 C-1568.62842886 994.24192228 -1560.95857189 984.07092676 -1553.21484375 973.9453125 C-1550.44473966 970.32193962 -1547.70015993 966.68185037 -1544.9765625 963.0234375 C-1535.29969761 950.09028918 -1525.26421363 937.4419169 -1515.02539062 924.95068359 C-1513.74929946 923.39145423 -1512.47968869 921.8269265 -1511.2109375 920.26171875 C-1505.14665627 912.79043701 -1498.92817592 905.46055826 -1492.6015625 898.2109375 C-1492.11284668 897.64552246 -1491.62413086 897.08010742 -1491.12060547 896.49755859 C-1475.17770065 878.14536157 -1453.58629635 861.71288581 -1428.6015625 859.2109375 C-1403.83436666 857.82258618 -1383.42030119 865.59863831 -1364.87109375 882.0703125 C-1354.75884667 891.48796277 -1347.18954187 903.16006063 -1340.6015625 915.2109375 C-1340.26705078 915.81421875 -1339.93253906 916.4175 -1339.58789062 917.0390625 C-1326.15704046 941.54447333 -1317.72336995 969.63546509 -1313.6015625 997.2109375 C-1313.39789062 998.45617188 -1313.19421875 999.70140625 -1312.984375 1000.984375 C-1301.94714693 1075.96077693 -1330.79386577 1151.86028934 -1362.6015625 1218.2109375 C-1363.04209961 1219.13197266 -1363.48263672 1220.05300781 -1363.93652344 1221.00195312 C-1369.61519535 1232.80259687 -1375.8873238 1244.21227704 -1382.39453125 1255.57421875 C-1384.84440981 1259.85696403 -1387.22217784 1264.171973 -1389.5637207 1268.51464844 C-1396.74459852 1281.80641924 -1404.63263932 1294.66699119 -1412.55993652 1307.52154541 C-1413.54926207 1309.12611249 -1414.53688578 1310.73172851 -1415.52441406 1312.33740234 C-1425.0839918 1327.85708936 -1435.02064008 1343.11892991 -1445.04980469 1358.33691406 C-1449.04319883 1364.39730473 -1453.02369456 1370.4661692 -1457.00531006 1376.53430176 C-1458.34593962 1378.57736845 -1459.68686554 1380.62024038 -1461.02783203 1382.66308594 C-1468.57602523 1394.1636637 -1476.09857991 1405.68080869 -1483.6015625 1417.2109375 C-1484.16810547 1418.08137695 -1484.73464844 1418.95181641 -1485.31835938 1419.84863281 C-1489.08307465 1425.63370216 -1492.84364703 1431.42144918 -1496.6015625 1437.2109375 C-1497.05418457 1437.90783691 -1497.50680664 1438.60473633 -1497.97314453 1439.32275391 C-1505.872835 1451.4893878 -1513.69004003 1463.70847781 -1521.50341797 1475.93066406 C-1523.58772485 1479.18930349 -1525.67432758 1482.44646056 -1527.76171875 1485.703125 C-1549.47323481 1519.58124413 -1570.82341713 1553.68645596 -1591.70214844 1588.08447266 C-1593.35054659 1590.79776144 -1595.00154127 1593.50944768 -1596.65400696 1596.22026062 C-1633.04027684 1655.91427683 -1667.97871102 1716.49397326 -1699.82568359 1778.74267578 C-1700.9684824 1780.97454268 -1702.11439333 1783.20482021 -1703.26416016 1785.43310547 C-1757.16812539 1889.437622 -1757.16812539 1889.437622 -1759.8515625 2002.6484375 C-1756.25794758 2012.24457403 -1752.12993578 2019.70688586 -1742.6015625 2024.2109375 C-1713.55579123 2036.27892777 -1675.08563328 2021.12192196 -1647.9324646 2009.91598511 C-1631.86018005 2003.16517015 -1616.5404061 1995.18830884 -1601.6015625 1986.2109375 C-1600.71033691 1985.68000488 -1599.81911133 1985.14907227 -1598.90087891 1984.60205078 C-1566.79356796 1965.40536914 -1536.88944784 1942.51689284 -1508.43286133 1918.2902832 C-1505.07397391 1915.43584953 -1501.66942085 1912.65170256 -1498.2265625 1909.8984375 C-1492.95330163 1905.6134305 -1488.00774311 1901.01789737 -1483.07861328 1896.34643555 C-1480.05357747 1893.48171269 -1477.00263737 1890.66822804 -1473.85180664 1887.94189453 C-1460.05129611 1875.89636738 -1447.11751015 1862.88778709 -1434.18652344 1849.92626953 C-1431.44841918 1847.1827384 -1428.7049187 1844.44468318 -1425.9609375 1841.70703125 C-1424.19238713 1839.93782103 -1422.42414648 1838.16830113 -1420.65625 1836.3984375 C-1419.84888397 1835.5930957 -1419.04151794 1834.78775391 -1418.20968628 1833.95800781 C-1414.02817845 1829.75928036 -1409.99986102 1825.4910093 -1406.15628052 1820.97973633 C-1404.54141413 1819.14250685 -1402.84778412 1817.42310166 -1401.1015625 1815.7109375 C-1398.10921875 1812.76493535 -1395.34832078 1809.68110743 -1392.609375 1806.5 C-1390.65793463 1804.27520611 -1388.65972602 1802.09923249 -1386.64697266 1799.92993164 C-1381.81851765 1794.72386456 -1377.2365112 1789.3927777 -1372.78125 1783.859375 C-1370.62398851 1781.23818631 -1368.3884525 1778.71939469 -1366.1015625 1776.2109375 C-1361.39529598 1771.03894669 -1356.99672574 1765.64746346 -1352.6015625 1760.2109375 C-1351.14377867 1758.43965177 -1349.6854417 1756.66882116 -1348.2265625 1754.8984375 C-1320.33024887 1720.76026368 -1294.76460482 1685.12937401 -1273.44174194 1646.51251221 C-1268.33191731 1637.2583733 -1263.08269466 1628.09498138 -1257.72509766 1618.98168945 C-1254.37731358 1613.27953882 -1251.09015287 1607.5496555 -1247.86401367 1601.77783203 C-1242.80602159 1592.73131015 -1237.61829588 1583.7701609 -1232.25891113 1574.8991394 C-1231.52649659 1573.68617224 -1230.79595752 1572.47207072 -1230.06726074 1571.25686646 C-1226.59270203 1565.46906463 -1223.13156201 1559.74733355 -1218.96875 1554.41796875 C-1205.47480789 1536.91416931 -1200.27624847 1515.34762435 -1193.67633057 1494.5760498 C-1191.84892231 1488.85441161 -1189.98123147 1483.14600698 -1188.11328125 1477.4375 C-1187.73736343 1476.28839645 -1187.36144562 1475.13929291 -1186.97413635 1473.95536804 C-1186.21190727 1471.62616336 -1185.44944042 1469.29703648 -1184.68673706 1466.96798706 C-1183.53466332 1463.44749454 -1182.38540696 1459.9260917 -1181.23657227 1456.40454102 C-1163.67590665 1402.63026631 -1144.06784213 1349.54994373 -1122.6015625 1297.2109375 C-1122.12940308 1296.05839478 -1122.12940308 1296.05839478 -1121.64770508 1294.88256836 C-1112.61699947 1272.85224831 -1103.27494717 1250.96646828 -1093.6015625 1229.2109375 C-1093.25311279 1228.42660339 -1092.90466309 1227.64226929 -1092.5456543 1226.83416748 C-1083.45197968 1206.37339959 -1074.2295512 1186.00224251 -1064.38549805 1165.88989258 C-1062.99043733 1163.02500583 -1061.6175374 1160.14999086 -1060.24926758 1157.2722168 C-1053.61054631 1143.31184952 -1046.80888281 1129.43929847 -1039.89526367 1115.61303711 C-1038.16473588 1112.14978511 -1036.44066863 1108.68336582 -1034.71679688 1105.21679688 C-1028.48159009 1092.71567128 -1022.04111965 1080.36460551 -1015.29663086 1068.13110352 C-1011.92394585 1062.00405045 -1008.72061477 1055.79516374 -1005.5461731 1049.56375122 C-1000.25991727 1039.19498406 -994.86772446 1028.89742086 -989.24780273 1018.70483398 C-985.17297247 1011.30194151 -981.21696387 1003.83976506 -977.27062988 996.36795044 C-971.44899465 985.3487477 -965.53146428 974.40635279 -959.34179688 963.58789062 C-955.32392478 956.54785821 -951.47712272 949.42615794 -947.6640625 942.2734375 C-942.00676182 931.6823987 -936.06620905 921.28801101 -929.96875 910.9453125 C-927.29003226 906.40081362 -924.66590702 901.82851906 -922.06738281 897.23779297 C-917.40850704 889.00794013 -912.63649956 880.8562145 -907.7265625 872.7734375 C-907.22253906 871.94191162 -906.71851562 871.11038574 -906.19921875 870.25366211 C-895.69189361 853.06147086 -884.68873289 836.17404875 -873.59472656 819.35668945 C-871.70316038 816.48794592 -869.81633113 813.61612324 -867.9296875 810.74414062 C-862.52289904 802.53032473 -857.11991334 794.3494868 -851.25732422 786.4519043 C-848.60230649 782.85850887 -846.10677319 779.1595559 -843.6015625 775.4609375 C-838.6030877 768.11798606 -833.55581086 760.81074132 -828.4765625 753.5234375 C-823.56553143 746.47626992 -818.67104104 739.4188541 -813.81494141 732.33374023 C-809.85575187 726.56448933 -805.85330407 720.82572259 -801.8515625 715.0859375 C-794.61566609 704.70164998 -787.47290736 694.25624079 -780.35693359 683.78955078 C-777.65489808 679.82030196 -774.94047095 675.85957284 -772.2265625 671.8984375 C-759.55327799 653.3826128 -746.9646086 634.8101132 -734.4140625 616.2109375 C-733.48069565 614.82781372 -733.48069565 614.82781372 -732.5284729 613.41674805 C-726.0354461 603.79196631 -719.55436842 594.15963952 -713.125 584.4921875 C-712.62298569 583.73752197 -712.12097137 582.98285645 -711.60374451 582.20532227 C-709.283024 578.71502974 -706.96563995 575.22258752 -704.65356445 571.7265625 C-700.39138739 565.29511518 -696.03266226 558.95982246 -691.45776367 552.74462891 C-688.53965722 548.76145006 -685.73164141 544.70301234 -682.9140625 540.6484375 C-676.76700682 531.83613786 -670.51076414 523.10905369 -664.19726562 514.41552734 C-662.61086593 512.22379093 -661.03442479 510.02523942 -659.4609375 507.82421875 C-653.00056266 498.80066274 -646.37724292 489.92111321 -639.625 481.11376953 C-635.1096707 475.21670605 -630.67461521 469.26751106 -626.2890625 463.2734375 C-620.97797109 456.02387212 -615.5264824 448.90982729 -609.92822266 441.88037109 C-607.63979945 439.00068065 -605.37208766 436.10474407 -603.1015625 433.2109375 C-602.18234225 432.0416269 -601.26307151 430.87235599 -600.34375 429.703125 C-598.53282075 427.39865648 -596.72581687 425.09119163 -594.921875 422.78125 C-589.50310158 415.85026074 -584.00540075 408.99077296 -578.44018555 402.17675781 C-574.91701538 397.85516951 -571.46011662 393.48859914 -568.0390625 389.0859375 C-563.80379192 383.64511884 -559.3844975 378.39049526 -554.87084961 373.17919922 C-552.04221791 369.90898233 -549.28096724 366.60595966 -546.6015625 363.2109375 C-542.89061224 358.51245786 -539.00193207 353.98298514 -535.09155273 349.45092773 C-532.06174158 345.93322122 -529.08553865 342.3823198 -526.1640625 338.7734375 C-521.54768971 333.09046595 -516.74969521 327.57487482 -511.94140625 322.0546875 C-508.72101685 318.35605951 -505.53443606 314.62934197 -502.3515625 310.8984375 C-498.92729645 306.88734494 -495.46428975 302.92438044 -491.9140625 299.0234375 C-488.94132227 295.75289145 -486.11670336 292.40858136 -483.3515625 288.9609375 C-478.6926466 283.19859415 -473.66828534 277.82601744 -468.6015625 272.42578125 C-465.79638996 269.43319417 -463.08542204 266.3713319 -460.40625 263.265625 C-458.01374513 260.54169088 -455.55752046 257.8774884 -453.1015625 255.2109375 C-450.08227617 251.93240673 -447.07954056 248.64512728 -444.1640625 245.2734375 C-439.61181304 240.02585638 -434.85564231 234.9644115 -430.13476562 229.86914062 C-427.78174828 227.32428492 -425.44145115 224.7678593 -423.1015625 222.2109375 C-414.7065741 213.04620804 -406.27785826 203.9139407 -397.7890625 194.8359375 C-397.17901367 194.18206055 -396.56896484 193.52818359 -395.94042969 192.85449219 C-392.42432768 189.10130663 -388.84831557 185.42602152 -385.17919922 181.82202148 C-383.54996082 180.15824182 -382.03972918 178.42842256 -380.5390625 176.6484375 C-376.55470563 172.01357338 -372.20432754 167.75888471 -367.83959961 163.48608398 C-364.89086196 160.58042383 -362.06521929 157.63222968 -359.375 154.484375 C-355.66830095 150.2265612 -351.74112974 146.23941479 -347.7265625 142.2734375 C-346.63432373 141.18687866 -346.63432373 141.18687866 -345.52001953 140.07836914 C-342.44099299 137.01551326 -339.35597927 133.95871439 -336.27148438 130.90136719 C-334.00440792 128.65249633 -331.74043284 126.40053512 -329.4765625 124.1484375 C-328.79094238 123.47111572 -328.10532227 122.79379395 -327.39892578 122.09594727 C-323.53075124 118.24720364 -319.87876433 114.28416816 -316.31466675 110.15335083 C-313.54688448 107.01508463 -310.59965486 104.06613704 -307.63671875 101.11328125 C-306.99971542 100.4753212 -306.3627121 99.83736115 -305.70640564 99.18006897 C-304.3706832 97.84367176 -303.03372015 96.50851345 -301.69555664 95.17456055 C-299.6689327 93.15329482 -297.64770703 91.12674176 -295.62695312 89.09960938 C-294.3180288 87.79134596 -293.00879426 86.48339283 -291.69921875 85.17578125 C-291.10625504 84.5807933 -290.51329132 83.98580536 -289.90235901 83.37278748 C-286.92816077 80.41482539 -283.90201103 77.57295646 -280.72241211 74.83618164 C-276.11894231 70.85221875 -271.85077637 66.56780348 -267.5703125 62.2421875 C-266.73495972 61.4030481 -265.89960693 60.56390869 -265.03894043 59.69934082 C-262.39069164 57.0389685 -259.74571844 54.37537737 -257.1015625 51.7109375 C-253.61493649 48.19756477 -250.12491324 44.68761779 -246.6328125 41.1796875 C-245.45277649 39.98720398 -245.45277649 39.98720398 -244.24890137 38.77062988 C-240.07713686 34.58059845 -235.81719618 30.57867836 -231.33547974 26.722229 C-229.21488542 24.8739077 -227.23065778 22.92224182 -225.26953125 20.90625 C-224.53984131 20.16270264 -223.81015137 19.41915527 -223.05834961 18.65307617 C-222.30948486 17.88842041 -221.56062012 17.12376465 -220.7890625 16.3359375 C-214.33397751 9.8257873 -207.89937102 3.77070231 -200.6015625 -1.7890625 C-199.29451539 -2.82288314 -197.98861934 -3.85815996 -196.68359375 -4.89453125 C-134.72586798 -53.71486535 -58.70920305 -54.14926495 0 0 Z M-124.640625 335.1171875 C-129.07798735 339.56795578 -133.40726463 344.0409369 -137.4921875 348.81640625 C-140.45702008 352.18204027 -143.53237364 355.44059504 -146.6015625 358.7109375 C-151.36692014 363.79786092 -156.07894917 368.90556417 -160.6015625 374.2109375 C-162.5588557 376.50349419 -164.51746724 378.79492064 -166.4765625 381.0859375 C-166.99661865 381.6948584 -167.5166748 382.3037793 -168.05249023 382.93115234 C-171.08114084 386.46813114 -174.15343433 389.95528713 -177.2890625 393.3984375 C-181.04549519 397.53790536 -184.57715512 401.82430016 -188.09375 406.16796875 C-190.99789327 409.69184353 -193.97800386 413.1424173 -196.9765625 416.5859375 C-206.02827986 426.98513839 -214.90130472 437.51492167 -223.6015625 448.2109375 C-225.10099342 450.04473629 -226.60099708 451.87806693 -228.1015625 453.7109375 C-228.84921875 454.62488281 -229.596875 455.53882813 -230.3671875 456.48046875 C-231.81453301 458.24916545 -233.26241551 460.01742293 -234.7109375 461.78515625 C-240.22614359 468.51813595 -245.71798959 475.26986673 -251.203125 482.02734375 C-253.44438853 484.78805004 -255.68930454 487.5457175 -257.9375 490.30078125 C-264.4616662 498.30104247 -270.9049189 506.3570542 -277.25878906 514.49316406 C-279.53390193 517.40365391 -281.81828232 520.30685391 -284.1015625 523.2109375 C-285.02216424 524.38278985 -285.94273721 525.55466482 -286.86328125 526.7265625 C-288.65634774 529.00876277 -290.4506805 531.28995806 -292.24609375 533.5703125 C-303.11775186 547.38317273 -313.91213338 561.25651953 -324.6015625 575.2109375 C-325.07352051 575.82694824 -325.54547852 576.44295898 -326.03173828 577.07763672 C-329.28814563 581.32937892 -332.54026831 585.58437669 -335.79052734 589.84082031 C-337.69063781 592.32751112 -339.5933608 594.81219041 -341.49609375 597.296875 C-348.61392358 606.60261196 -355.66350901 615.95139711 -362.59350586 625.39794922 C-366.23280636 630.3586964 -369.90151082 635.29535647 -373.6015625 640.2109375 C-384.23262245 654.34845678 -394.66400938 668.62948072 -404.99707031 682.98583984 C-406.59794713 685.20592373 -408.20431681 687.42192299 -409.8125 689.63671875 C-417.26385679 699.90576805 -424.57663716 710.26536889 -431.83105469 720.67431641 C-433.59663271 723.20387455 -435.36764154 725.72953415 -437.140625 728.25390625 C-437.73109619 729.09518066 -438.32156738 729.93645508 -438.92993164 730.80322266 C-440.01691542 732.35159685 -441.10454256 733.8995198 -442.19311523 735.44677734 C-453.29303585 751.27517776 -464.09603464 767.31426969 -474.9140625 783.3359375 C-475.54641815 784.2722702 -476.1787738 785.20860291 -476.83029175 786.17330933 C-485.50117475 799.02203486 -494.02660921 811.93852042 -502.3125 825.0390625 C-505.86224345 830.6482781 -509.53715182 836.1683641 -513.23632812 841.6796875 C-518.60010235 849.6779141 -523.83562602 857.75842294 -529.06835938 865.84277344 C-530.47877761 868.02128568 -531.89131381 870.19840452 -533.3046875 872.375 C-539.47539627 881.8853411 -545.58804671 891.43241461 -551.6940918 900.984375 C-555.52032884 906.96749926 -559.35987978 912.94138157 -563.2265625 918.8984375 C-569.14495876 928.02119558 -574.97303038 937.201087 -580.80322266 946.38037109 C-583.73330022 950.99227977 -586.66763473 955.60147765 -589.6015625 960.2109375 C-590.76563548 962.04035792 -591.92969796 963.86978501 -593.09375 965.69921875 C-595.45224036 969.40551195 -597.81171586 973.11117553 -600.171875 976.81640625 C-607.18259904 987.82433812 -614.17155083 998.84561839 -621.13378906 1009.88427734 C-623.12014727 1013.03297889 -625.10822964 1016.18058993 -627.09643555 1019.328125 C-628.1006271 1020.91789135 -629.10469593 1022.50773523 -630.10864258 1024.09765625 C-632.56938366 1027.99459491 -635.03133648 1031.89075635 -637.49609375 1035.78515625 C-639.97334196 1039.70005605 -642.44568828 1043.61801979 -644.91552734 1047.53759766 C-646.12798197 1049.46003874 -647.34204173 1051.38146784 -648.55712891 1053.30224609 C-650.61764307 1056.56094899 -652.67253721 1059.82314155 -654.7265625 1063.0859375 C-655.37858643 1064.11485107 -656.03061035 1065.14376465 -656.70239258 1066.20385742 C-657.31107178 1067.17299072 -657.91975098 1068.14212402 -658.546875 1069.140625 C-659.08844238 1069.99897949 -659.63000977 1070.85733398 -660.18798828 1071.74169922 C-661.58050246 1074.17414972 -662.62869369 1076.58589437 -663.6015625 1079.2109375 C-658.65522212 1075.02851069 -653.87169245 1070.72169878 -649.1640625 1066.2734375 C-647.75920201 1064.95042799 -646.35425139 1063.62751419 -644.94921875 1062.3046875 C-644.2339502 1061.63050781 -643.51868164 1060.95632813 -642.78173828 1060.26171875 C-640.62098396 1058.22920629 -638.45423745 1056.2033086 -636.28515625 1054.1796875 C-630.25363833 1048.54985236 -624.23834363 1042.93020802 -618.4609375 1037.03759766 C-616.65044899 1035.25896386 -614.78062178 1033.60550454 -612.8515625 1031.95703125 C-608.75614122 1028.39469167 -604.91329013 1024.63508985 -601.1015625 1020.7734375 C-600.42158203 1020.08967041 -599.74160156 1019.40590332 -599.04101562 1018.70141602 C-596.89205324 1016.54036695 -594.74638971 1014.37609024 -592.6015625 1012.2109375 C-589.77122413 1009.35377733 -586.93743577 1006.50010296 -584.1015625 1003.6484375 C-583.46798828 1003.00656494 -582.83441406 1002.36469238 -582.18164062 1001.70336914 C-578.37474018 997.87599612 -574.4489802 994.25133685 -570.35377502 990.73362732 C-567.98426411 988.67449917 -565.75464576 986.49641836 -563.5390625 984.2734375 C-562.76433594 983.50128906 -561.98960938 982.72914063 -561.19140625 981.93359375 C-559.28997823 979.9346566 -557.5098314 977.93243925 -555.73046875 975.83203125 C-549.11738255 968.21612268 -541.72596187 961.28379837 -534.5625 954.19238281 C-524.98415297 944.76946763 -524.98415297 944.76946763 -515.9765625 934.80859375 C-513.81713082 932.29948138 -511.47004124 930.02368733 -509.1015625 927.7109375 C-505.29286916 923.95943956 -501.68189374 920.10503981 -498.2109375 916.0390625 C-496.57569816 914.18155762 -494.86674457 912.44487741 -493.1015625 910.7109375 C-490.80830214 908.45295807 -488.63728222 906.15097246 -486.5390625 903.7109375 C-483.00322055 899.60583302 -479.30822533 895.66096953 -475.6015625 891.7109375 C-471.42273176 887.25424306 -467.28005668 882.78604505 -463.296875 878.15234375 C-461.15001199 875.69383934 -458.93619118 873.3006485 -456.7265625 870.8984375 C-453.41819336 867.27569845 -450.24143892 863.59400859 -447.1640625 859.7734375 C-443.94212933 855.77869496 -440.59498639 851.96541641 -437.1015625 848.2109375 C-432.79159812 843.5784537 -428.75095082 838.78971517 -424.78125 833.859375 C-422.62398851 831.23818631 -420.3884525 828.71939469 -418.1015625 826.2109375 C-413.87472028 821.56213857 -409.89673958 816.74807909 -405.94580078 811.86425781 C-403.85723756 809.29546919 -401.74790485 806.74391206 -399.64038086 804.19067383 C-384.70519229 786.11045979 -384.70519229 786.11045979 -370.23828125 767.65625 C-367.7584483 764.4062885 -365.24644413 761.18207134 -362.73120117 757.95947266 C-351.19343218 743.17404725 -339.69562503 728.36259325 -328.89257812 713.02880859 C-327.43902422 710.98206835 -325.96733048 708.94920299 -324.4921875 706.91796875 C-323.94071045 706.15830811 -323.3892334 705.39864746 -322.82104492 704.6159668 C-321.77573624 703.17760849 -320.72919177 701.74014671 -319.6809082 700.30395508 C-309.77669207 686.65349357 -300.42950855 672.5913376 -290.98583984 658.62109375 C-289.73131631 656.76677858 -288.4751348 654.913584 -287.21728516 653.06152344 C-279.88278471 642.26101849 -272.73812061 631.39765182 -266.02294922 620.19995117 C-263.51941926 616.0367237 -260.88513886 611.96387521 -258.2265625 607.8984375 C-257.71689941 607.11436523 -257.20723633 606.33029297 -256.68212891 605.52246094 C-256.07377197 604.58708496 -256.07377197 604.58708496 -255.453125 603.6328125 C-243.68015523 585.4419109 -232.71212071 566.74773133 -221.70819092 548.08636475 C-220.67163117 546.32968441 -219.63300918 544.57422139 -218.59423828 542.81884766 C-210.60035205 529.3044259 -202.94179742 515.64537292 -195.53881836 501.79882812 C-194.02658737 498.98528944 -192.48949463 496.18600724 -190.94750977 493.38867188 C-183.605821 480.05258874 -176.58562497 466.58255349 -169.7890625 452.9609375 C-169.27098022 451.92389679 -168.75289795 450.88685608 -168.21911621 449.81838989 C-138.68367505 393.60994093 -138.68367505 393.60994093 -121.6015625 333.2109375 C-122.94503598 333.09711811 -122.94503598 333.09711811 -124.640625 335.1171875 Z M584.26171875 790.2265625 C565.6739833 810.02230591 559.93984935 838.54124074 560.0859375 864.7734375 C560.08809265 865.47336823 560.0902478 866.17329895 560.09246826 866.8944397 C560.2934696 907.74244356 575.304939 952.73749369 604.53979492 982.38232422 C605.15314697 982.9857666 605.76649902 983.58920898 606.3984375 984.2109375 C615.39631295 953.86863134 623.25961386 923.65952178 627.3984375 892.2109375 C627.57415283 890.97633789 627.57415283 890.97633789 627.75341797 889.71679688 C632.48853854 856.08547989 632.79083226 816.14130032 614.6484375 786.3359375 C604.20984572 776.47726749 593.58880289 781.47891645 584.26171875 790.2265625 Z M320.3359375 907.7734375 C316.6111162 911.24671903 312.88560665 914.70212438 309.0234375 918.0234375 C305.95512521 920.67451067 303.1048127 923.48057493 300.26695251 926.37486267 C298.48922473 928.12172647 296.65683623 929.74198022 294.76000977 931.35766602 C290.0069201 935.49276341 285.56104733 939.90442328 281.11328125 944.36328125 C280.25336075 945.22224503 279.39344025 946.0812088 278.50746155 946.96620178 C276.70027889 948.77270765 274.89434358 950.58046212 273.08959961 952.3894043 C270.34405357 955.1403056 267.59321204 957.88582971 264.84179688 960.63085938 C263.0778043 962.39551282 261.314122 964.16047647 259.55078125 965.92578125 C258.73705551 966.73748276 257.92332977 967.54918427 257.08494568 968.38548279 C252.84222854 972.64546794 248.75252228 976.9776364 244.84291077 981.54627991 C242.96424356 983.71131661 240.95516693 985.71560298 238.8984375 987.7109375 C235.57417207 990.99609393 232.4520392 994.36874438 229.41015625 997.9140625 C226.79563114 1000.8991902 224.09789604 1003.8027131 221.3984375 1006.7109375 C214.48444188 1014.17458573 207.84094284 1021.84786129 201.22924805 1029.57910156 C197.96294817 1033.39610598 194.6770162 1037.19516557 191.37768555 1040.98364258 C186.43893147 1046.65738627 181.56656035 1052.36835185 176.83203125 1058.21484375 C174.93939066 1060.54494862 173.03554986 1062.86368632 171.12109375 1065.17578125 C164.24884969 1073.47671128 157.46609915 1081.8321546 150.85400391 1090.34179688 C149.2742566 1092.37040227 147.6862925 1094.39241176 146.09765625 1096.4140625 C138.25942276 1106.41001195 130.65238067 1116.55594015 123.15722656 1126.81103516 C121.38835017 1129.22470187 119.60993585 1131.63102534 117.828125 1134.03515625 C110.2039874 1144.32601851 102.71703131 1154.70048917 95.3984375 1165.2109375 C94.95999512 1165.83967773 94.52155273 1166.46841797 94.06982422 1167.11621094 C80.354418 1186.82148475 67.16018728 1206.87644523 54.3984375 1227.2109375 C53.58511963 1228.50330322 53.58511963 1228.50330322 52.75537109 1229.82177734 C43.98991687 1243.77124383 35.60640083 1257.92707081 27.3984375 1272.2109375 C26.85719238 1273.15163086 26.31594727 1274.09232422 25.75830078 1275.06152344 C-17.83038302 1351.00045873 -54.56271657 1431.63191257 -92.6015625 1616.2109375 C-92.67358887 1617.00532227 -92.74561523 1617.79970703 -92.81982422 1618.61816406 C-96.03414706 1655.84292142 -97.46506335 1709.25727577 -72.6015625 1740.2109375 C-63.77364496 1750.15020808 -49.49160509 1752.60667877 -36.77246094 1753.38378906 C-22.15589561 1753.94578301 -7.95557989 1752.9855471 6.3984375 1750.2109375 C7.21103027 1750.0552832 8.02362305 1749.89962891 8.86083984 1749.73925781 C74.17367555 1736.72604219 135.91369882 1699.57631534 186.3984375 1657.2109375 C188.1475114 1655.79312759 189.89754368 1654.37649932 191.6484375 1652.9609375 C206.54973636 1640.74779909 220.90627057 1627.89610069 234.41796875 1614.15625 C236.38483624 1612.22429732 238.42275086 1610.43302081 240.5234375 1608.6484375 C243.78064431 1605.85017176 246.51554199 1602.85072667 249.28515625 1599.578125 C252.03606945 1596.49669543 254.96020987 1593.61268086 257.8984375 1590.7109375 C262.00316256 1586.64786716 265.99280975 1582.56134406 269.734375 1578.15625 C271.69982764 1575.85860818 273.73573621 1573.63220627 275.7734375 1571.3984375 C279.64877493 1567.10485118 283.3206506 1562.68005748 286.95703125 1558.18359375 C289.675637 1554.87341939 292.46938967 1551.63608251 295.2734375 1548.3984375 C300.74193913 1542.06302059 305.93685597 1535.54508624 311.06152344 1528.93017578 C312.35575666 1527.265824 313.65985716 1525.60987038 314.96875 1523.95703125 C327.30222683 1508.37839097 339.28525433 1492.5467961 350.83935547 1476.38183594 C352.38054456 1474.235852 353.93565898 1472.10077079 355.49609375 1469.96875 C374.41703479 1444.07553947 392.10608428 1417.21429663 409.3984375 1390.2109375 C409.92614746 1389.38980469 410.45385742 1388.56867188 410.99755859 1387.72265625 C419.36255796 1374.70132544 427.51005051 1361.56214519 435.51513672 1348.31689453 C437.49902201 1345.0450526 439.4962959 1341.78166931 441.49609375 1338.51953125 C449.40452817 1325.60417051 457.1238199 1312.60322725 464.58935547 1299.42651367 C468.23160991 1292.9981855 471.92056173 1286.60243553 475.68139648 1280.24267578 C483.38603567 1267.19967363 490.51868867 1253.89143539 497.59004211 1240.49949646 C500.44626565 1235.09935546 503.38449332 1229.74687998 506.3359375 1224.3984375 C513.19822242 1211.91051719 519.65707652 1199.21428346 526.15197754 1186.53294373 C528.6213275 1181.71515379 531.10941267 1176.90743751 533.609375 1172.10546875 C534.28605986 1170.80412222 534.96273644 1169.50277138 535.6394043 1168.20141602 C536.89066197 1165.79546088 538.14515997 1163.39129388 539.40161133 1160.98803711 C546.81215739 1148.61451464 546.81215739 1148.61451464 550.3984375 1135.2109375 C549.68115479 1134.94055664 548.96387207 1134.67017578 548.22485352 1134.39160156 C530.85004753 1127.80339543 514.00518503 1120.58723927 497.3984375 1112.2109375 C496.59873535 1111.81165039 495.7990332 1111.41236328 494.97509766 1111.00097656 C457.39292514 1092.14857503 419.30630373 1064.06146115 393.37109375 1030.73046875 C392.03275596 1029.02110662 390.64186204 1027.35186697 389.20703125 1025.72265625 C375.71425834 1010.36267918 364.66404495 992.39898175 355.3984375 974.2109375 C354.6876001 972.8180249 354.6876001 972.8180249 353.96240234 971.39697266 C342.68875362 949.08491988 334.32689035 926.20159397 327.3984375 902.2109375 C324.981165 902.2109375 322.12238326 906.09588506 320.3359375 907.7734375 Z " fill="#0D57A5" transform="translate(3398.6015625,134.7890625)"/>
<path d="M0 0 C15.93233023 0.37709657 31.44724189 7.23866714 42.734375 18.390625 C68.12822146 46.55470926 76.75319412 83.75568508 75.06640625 120.9296875 C71.09613971 188.79978437 41.75521167 254.91574418 6.97998047 312.47509766 C5.27773864 315.30784738 3.60569115 318.15652195 1.94140625 321.01171875 C-4.64204566 332.29446966 -11.47635286 343.358624 -18.6875 354.25 C-19.46901522 355.44123229 -20.25027224 356.63263402 -21.03125 357.82421875 C-39.81238283 386.35626055 -60.17111085 413.73875292 -81.3359375 440.53515625 C-82.72808283 442.30149093 -84.11474803 444.07200507 -85.5 445.84375 C-90.35389301 452.04903006 -95.25176472 458.20910642 -100.2578125 464.29296875 C-103.16438211 467.83038546 -106.05175491 471.38309105 -108.9375 474.9375 C-109.48978271 475.6173999 -110.04206543 476.2972998 -110.61108398 476.99780273 C-113.38156423 480.40876389 -116.15061142 483.82087975 -118.91796875 487.234375 C-129.12366254 499.81818507 -139.35940988 512.37649549 -149.85595703 524.71948242 C-153.41851786 528.91402546 -156.9010852 533.16954753 -160.375 537.4375 C-163.4118277 541.1309391 -166.50710955 544.77298486 -169.60375977 548.41625977 C-172.4829532 551.80954109 -175.31954237 555.23267786 -178.125 558.6875 C-182.08258188 563.55129025 -186.15292446 568.30881231 -190.24584961 573.05834961 C-193.27695289 576.58298919 -196.25735316 580.14039882 -199.1875 583.75 C-203.12193256 588.59676475 -207.17304574 593.33279255 -211.24829102 598.06079102 C-214.25995009 601.56235302 -217.2180895 605.09786557 -220.125 608.6875 C-224.26810991 613.79307465 -228.5698045 618.74800053 -232.89038086 623.70288086 C-236.05215838 627.33737851 -239.15600206 631.00520843 -242.1875 634.75 C-247.31612131 641.07873745 -252.68024671 647.19705834 -258.02783203 653.34033203 C-264.23622623 660.48391241 -270.41573972 667.64645872 -276.375 675 C-279.93017904 679.38151795 -283.65519537 683.56710681 -287.453125 687.73828125 C-289.68884533 690.25151232 -291.82127682 692.82311479 -293.9375 695.4375 C-299.15268515 701.87711993 -304.60081752 708.10455403 -310.04101562 714.35351562 C-312.62387409 717.32855189 -315.18806914 720.3194406 -317.75 723.3125 C-318.24089111 723.88589111 -318.73178223 724.45928223 -319.23754883 725.05004883 C-320.22635203 726.20530518 -321.21504049 727.36065976 -322.20361328 728.51611328 C-324.69645524 731.42894046 -327.19212766 734.33934061 -329.6875 737.25 C-330.6875134 738.41665518 -331.68751341 739.58332184 -332.6875 740.75 C-342.6875 752.41666667 -352.6875 764.08333333 -362.6875 775.75 C-363.18241943 776.32741943 -363.67733887 776.90483887 -364.18725586 777.49975586 C-365.18801606 778.66728228 -366.18882992 779.8347627 -367.18969727 781.00219727 C-369.67850676 783.90533629 -372.16640091 786.80924949 -374.65234375 789.71484375 C-380.35477831 796.37768834 -386.08135689 803.01871705 -391.82958984 809.64208984 C-397.47757108 816.15354268 -403.08431312 822.70000398 -408.6875 829.25 C-415.37718634 837.07008879 -422.08582834 844.87266215 -428.83178711 852.64428711 C-432.4656981 856.83317571 -436.08248719 861.03622513 -439.6875 865.25 C-444.37974938 870.73460812 -449.10053853 876.19376173 -453.83203125 881.64453125 C-457.46582595 885.83336858 -461.08256182 890.03631236 -464.6875 894.25 C-469.37974938 899.73460812 -474.10053853 905.19376173 -478.83203125 910.64453125 C-482.46582628 914.83336896 -486.08251208 919.0363546 -489.6875 923.25 C-496.53150715 931.24801066 -503.43232174 939.19640891 -510.33300781 947.14550781 C-516.13618905 953.83140706 -521.93139938 960.52349322 -527.6875 967.25 C-534.53160145 975.24793087 -541.43232097 983.19640802 -548.33300781 991.14550781 C-554.63391765 998.40484482 -560.91920301 1005.67663522 -567.16821289 1012.98071289 C-571.36863124 1017.88682909 -575.59828453 1022.76717457 -579.83203125 1027.64453125 C-583.46582628 1031.83336896 -587.08251208 1036.0363546 -590.6875 1040.25 C-597.53150715 1048.24801066 -604.43232174 1056.19640891 -611.33300781 1064.14550781 C-617.63391765 1071.40484482 -623.91920301 1078.67663522 -630.16821289 1085.98071289 C-634.36863124 1090.88682909 -638.59828453 1095.76717457 -642.83203125 1100.64453125 C-646.46582595 1104.83336858 -650.08256182 1109.03631236 -653.6875 1113.25 C-658.37974938 1118.73460812 -663.10053853 1124.19376173 -667.83203125 1129.64453125 C-671.46582595 1133.83336858 -675.08256182 1138.03631236 -678.6875 1142.25 C-683.37974938 1147.73460812 -688.10053853 1153.19376173 -692.83203125 1158.64453125 C-696.46582595 1162.83336858 -700.08256182 1167.03631236 -703.6875 1171.25 C-707.83609869 1176.09915361 -712.00424344 1180.93071453 -716.1875 1185.75 C-721.88612945 1192.31608843 -727.55155018 1198.90992677 -733.20361328 1205.51611328 C-735.69645524 1208.42894046 -738.19212766 1211.33934061 -740.6875 1214.25 C-741.6875134 1215.41665518 -742.68751341 1216.58332184 -743.6875 1217.75 C-773.6875 1252.75 -773.6875 1252.75 -775.18823242 1254.50073242 C-776.18595195 1255.66481977 -777.18351114 1256.82904456 -778.1809082 1257.9934082 C-780.71448743 1260.95069887 -783.25100137 1263.90538369 -785.79296875 1266.85546875 C-790.29630698 1272.08673411 -794.77779743 1277.32489245 -799.125 1282.6875 C-802.72386198 1287.12239526 -806.43485888 1291.44564251 -810.1875 1295.75 C-814.70227284 1300.92930172 -819.11987753 1306.16835614 -823.4453125 1311.5078125 C-825.99003683 1314.62000148 -828.58368225 1317.68726497 -831.1875 1320.75 C-834.56038602 1324.71899152 -837.89926774 1328.7101718 -841.1875 1332.75 C-844.4757374 1336.78983452 -847.81481461 1340.78083277 -851.1875 1344.75 C-856.09297942 1350.52545014 -860.90646599 1356.37097083 -865.6875 1362.25 C-873.93993131 1372.35883836 -882.24113306 1382.427366 -890.54003906 1392.49804688 C-897.60369779 1401.07026653 -904.66024386 1409.64789738 -911.6875 1418.25 C-913.18735696 1420.08345036 -914.6873594 1421.91678171 -916.1875 1423.75 C-916.93 1424.6575 -917.6725 1425.565 -918.4375 1426.5 C-920.6875 1429.25 -922.9375 1432 -925.1875 1434.75 C-925.93515625 1435.66394531 -926.6828125 1436.57789063 -927.453125 1437.51953125 C-928.90047051 1439.28822795 -930.34835301 1441.05648543 -931.796875 1442.82421875 C-937.88447335 1450.25597659 -943.9426589 1457.71143422 -949.99804688 1465.16943359 C-952.18871526 1467.86724804 -954.38016052 1470.56443062 -956.57177734 1473.26147461 C-957.65039947 1474.58897192 -958.72884954 1475.91660904 -959.80712891 1477.24438477 C-962.53722797 1480.60586545 -965.26997272 1483.96513245 -968.0078125 1487.3203125 C-973.16767496 1493.64886176 -978.29407428 1499.99601908 -983.3125 1506.4375 C-987.27561833 1511.52271467 -991.37642964 1516.46444961 -995.56738281 1521.36279297 C-999.30844032 1525.75475736 -1002.88098613 1530.26238284 -1006.42626953 1534.81298828 C-1009.92094157 1539.29242173 -1013.47486943 1543.71971094 -1017.0625 1548.125 C-1017.60487305 1548.79104248 -1018.14724609 1549.45708496 -1018.70605469 1550.14331055 C-1020.92049021 1552.86034314 -1023.13704448 1555.57564359 -1025.35351562 1558.29101562 C-1031.47759662 1565.79679292 -1037.56173668 1573.32625122 -1043.52392578 1580.96142578 C-1047.56620909 1586.12567279 -1051.70517594 1591.20827897 -1055.8515625 1596.2890625 C-1059.34280243 1600.57451815 -1062.78560353 1604.8933597 -1066.1875 1609.25 C-1070.64882798 1614.96157425 -1075.19834182 1620.59643937 -1079.77685547 1626.21435547 C-1087.31585659 1635.46788217 -1094.77021217 1644.78690375 -1102.125 1654.1875 C-1106.63031161 1659.94600948 -1111.22865714 1665.62427781 -1115.85131836 1671.28881836 C-1119.342687 1675.57431438 -1122.78561834 1679.89320419 -1126.1875 1684.25 C-1130.12945165 1689.2984644 -1134.1378742 1694.28751462 -1138.1875 1699.25 C-1144.11215971 1706.51332952 -1149.92019816 1713.86143615 -1155.6875 1721.25 C-1161.40918404 1728.5801223 -1167.17329206 1735.86594588 -1173.0625 1743.0625 C-1177.52909342 1748.52299141 -1181.86827956 1754.06206332 -1186.125 1759.6875 C-1191.14314043 1766.31722822 -1196.35052561 1772.76044272 -1201.66552734 1779.15380859 C-1205.95359814 1784.32320307 -1210.06363523 1789.59447343 -1214.12890625 1794.94140625 C-1217.06823966 1798.77618117 -1220.1285325 1802.51047426 -1223.1875 1806.25 C-1227.11368884 1811.05171528 -1230.98933077 1815.87991193 -1234.75 1820.8125 C-1238.81030668 1826.13426119 -1242.96302771 1831.37278354 -1247.15429688 1836.59179688 C-1251.92277815 1842.53255523 -1256.6309585 1848.51928713 -1261.32861328 1854.51611328 C-1264.0703512 1858.01446446 -1266.81824956 1861.5079795 -1269.56494141 1865.00244141 C-1271.84606239 1867.90502423 -1274.12578263 1870.80868273 -1276.40234375 1873.71484375 C-1280.59750342 1879.06695098 -1284.8057858 1884.40642325 -1289.06835938 1889.70507812 C-1293.83986418 1895.63671351 -1298.52289728 1901.62334995 -1303.125 1907.6875 C-1307.89748428 1913.97461783 -1312.80578174 1920.12841971 -1317.81225586 1926.23022461 C-1321.70666125 1930.99512349 -1325.47104299 1935.84537163 -1329.1875 1940.75 C-1334.00659125 1947.10954296 -1338.96345762 1953.33461518 -1344.01904297 1959.50732422 C-1348.19178726 1964.61156374 -1352.23070736 1969.80257054 -1356.23046875 1975.04296875 C-1360.1954328 1980.23430911 -1364.25337334 1985.35329566 -1368.29638672 1990.48388672 C-1370.59624237 1993.40371048 -1372.89165945 1996.32701893 -1375.1875 1999.25 C-1376.1041451 2000.41668361 -1377.02081177 2001.58335027 -1377.9375 2002.75 C-1378.39125 2003.3275 -1378.845 2003.905 -1379.3125 2004.5 C-1394.4375 2023.75 -1394.4375 2023.75 -1395.81176758 2025.49902344 C-1396.73093313 2026.66890016 -1397.65004095 2027.83882223 -1398.5690918 2029.00878906 C-1400.82206094 2031.87671157 -1403.07593723 2034.7439099 -1405.33203125 2037.609375 C-1410.47176392 2044.13985886 -1415.58870342 2050.68749359 -1420.6875 2057.25 C-1427.09490616 2065.49677811 -1433.53994615 2073.71318069 -1440.00097656 2081.91796875 C-1447.33224024 2091.22992172 -1454.61830683 2100.57636145 -1461.88916016 2109.93554688 C-1464.82049363 2113.70815634 -1467.75409198 2117.47900355 -1470.6875 2121.25 C-1471.85417794 2122.74999123 -1473.0208446 2124.24999124 -1474.1875 2125.75 C-1481.1875 2134.75 -1488.1875 2143.75 -1495.1875 2152.75 C-1495.76556396 2153.49338623 -1496.34362793 2154.23677246 -1496.93920898 2155.00268555 C-1498.09954748 2156.49422526 -1499.26051207 2157.98527812 -1500.42211914 2159.47583008 C-1503.44107011 2163.35140149 -1506.4468687 2167.23624323 -1509.43359375 2171.13671875 C-1510.05169922 2171.94044922 -1510.66980469 2172.74417969 -1511.30664062 2173.57226562 C-1512.47741768 2175.09515609 -1513.64439558 2176.62097873 -1514.80664062 2178.15039062 C-1528.87191875 2196.40317051 -1548.07826879 2207.1099626 -1570.42578125 2211.828125 C-1620.72891342 2218.33439838 -1666.13190863 2189.38907027 -1704.2043457 2160.0390625 C-1714.6564202 2151.88824063 -1724.64519507 2143.17609729 -1734.453125 2134.265625 C-1736.54832063 2132.37555342 -1738.67368566 2130.52787513 -1740.8125 2128.6875 C-1744.27275168 2125.6788876 -1747.48326643 2122.47294011 -1750.69921875 2119.20703125 C-1752.57301042 2117.36269014 -1754.50063471 2115.64367934 -1756.5 2113.9375 C-1765.48656056 2106.16676822 -1773.39620002 2097.61892847 -1780.6875 2088.25 C-1781.42742187 2087.31542969 -1782.16734375 2086.38085938 -1782.9296875 2085.41796875 C-1839.51540028 2012.28729843 -1833.45131017 1907.91502034 -1819.6875 1776.25 C-1808.48135632 1689.60405958 -1791.68096541 1603.5248007 -1697.36658955 1193.92442322 C-1695.98617453 1188.44109113 -1694.6105613 1182.95656399 -1693.23632812 1177.47167969 C-1679.82233226 1123.94164972 -1665.97994095 1070.53510173 -1651.80037785 1017.20288372 C-1650.22565692 1011.27881777 -1648.65491167 1005.35371241 -1647.08740234 999.42773438 C-1624.40004179 913.66194295 -1600.89677549 828.09732535 -1482.6875 436.25 C-1482.37466064 435.30805786 -1482.06182129 434.36611572 -1481.73950195 433.39562988 C-1464.03182597 380.15138159 -1445.23584778 326.78267135 -1420.6875 276.25 C-1420.3147998 275.47962402 -1419.94209961 274.70924805 -1419.55810547 273.91552734 C-1417.63720096 269.96332152 -1415.67310539 266.03642853 -1413.65722656 262.13183594 C-1412.98515888 260.82763209 -1412.31818171 259.52079728 -1411.65527344 258.21191406 C-1397.88845238 231.04287268 -1379.59051137 200.05747374 -1349.08984375 189.90625 C-1327.49261411 184.00651898 -1304.3926593 191.05613006 -1285.375 201.5625 C-1278.55670287 205.46266128 -1272.55111365 210.01463067 -1266.6875 215.25 C-1265.83671875 215.98089844 -1264.9859375 216.71179688 -1264.109375 217.46484375 C-1247.26580488 232.16421706 -1234.80771047 250.45311125 -1224.6875 270.25 C-1224.11588135 271.35649902 -1224.11588135 271.35649902 -1223.53271484 272.48535156 C-1210.74424278 297.49561435 -1202.49608382 324.73294322 -1196.875 352.1875 C-1196.6800293 353.13238281 -1196.48505859 354.07726562 -1196.28417969 355.05078125 C-1192.90145959 372.47149144 -1192.3151484 389.67476926 -1192.375 407.375 C-1192.37715515 408.52328278 -1192.3793103 409.67156555 -1192.38153076 410.85464478 C-1192.43539692 428.78974108 -1193.04176436 446.39626217 -1195.41534424 464.19342041 C-1195.70466367 466.37969944 -1195.9816209 468.56733518 -1196.25732422 470.75537109 C-1208.56859465 567.48749485 -1237.03065048 662.07651165 -1278.28950214 809.38447952 C-1301.08863455 890.40621935 -1323.22601564 971.59043585 -1390.66848755 1231.53239441 C-1393.44475886 1242.39407183 -1396.22550244 1253.25459509 -1399.00904846 1264.1144104 C-1408.90992604 1302.74254252 -1418.77182817 1341.37892792 -1428.40331894 1380.07521677 C-1433.22159881 1399.43081511 -1438.08967468 1418.77309006 -1443.00498962 1438.10425949 C-1452.07996347 1473.79935837 -1461.04586646 1509.52137957 -1469.97118151 1545.25415355 C-1471.3314122 1550.6998699 -1472.69223304 1556.14543854 -1474.05331421 1561.59094238 C-1483.59401502 1599.76361844 -1493.12223911 1637.93923151 -1502.50195312 1676.15185547 C-1502.81083466 1677.41001068 -1503.11971619 1678.66816589 -1503.43795776 1679.96444702 C-1504.01756439 1682.32736733 -1504.59633155 1684.69049377 -1505.17410278 1687.05386353 C-1506.65915123 1693.11713796 -1508.17200275 1699.17231648 -1509.71630859 1705.22070312 C-1510.05151245 1706.53921876 -1510.38661211 1707.8577609 -1510.72160339 1709.17633057 C-1511.36037154 1711.68490306 -1512.00397429 1714.19225081 -1512.6530304 1716.69818115 C-1512.93470566 1717.80615051 -1513.21638092 1718.91411987 -1513.5065918 1720.05566406 C-1513.75934372 1721.0373053 -1514.01209564 1722.01894653 -1514.27250671 1723.03033447 C-1514.4094545 1723.7628241 -1514.54640228 1724.49531372 -1514.6875 1725.25 C-1514.3575 1725.58 -1514.0275 1725.91 -1513.6875 1726.25 C-1507.55356321 1718.68046099 -1501.49685342 1711.07250522 -1495.6875 1703.25 C-1491.26180253 1697.29333259 -1486.70722088 1691.46207564 -1482.04907227 1685.68579102 C-1478.8568535 1681.72388412 -1475.71617011 1677.72871145 -1472.625 1673.6875 C-1467.8307207 1667.42034297 -1462.96241268 1661.21366327 -1458.07861328 1655.01611328 C-1455.77875763 1652.09628952 -1453.48334055 1649.17298107 -1451.1875 1646.25 C-1450.2708549 1645.08331639 -1449.35418823 1643.91664973 -1448.4375 1642.75 C-1447.98375 1642.1725 -1447.53 1641.595 -1447.0625 1641 C-1442.02083333 1634.58333333 -1436.97916667 1628.16666667 -1431.9375 1621.75 C-1431.48383057 1621.17258057 -1431.03016113 1620.59516113 -1430.56274414 1620.00024414 C-1429.64534991 1618.8326959 -1428.72786933 1617.66521551 -1427.81030273 1616.49780273 C-1425.52905755 1613.5951721 -1423.24928786 1610.69140726 -1420.97265625 1607.78515625 C-1415.74259493 1601.11231939 -1410.473997 1594.47245764 -1405.17041016 1587.85791016 C-1401.80042851 1583.65115324 -1398.4527785 1579.42771474 -1395.125 1575.1875 C-1394.67366699 1574.61241699 -1394.22233398 1574.03733398 -1393.75732422 1573.44482422 C-1391.50573665 1570.57366687 -1389.25760429 1567.6998378 -1387.01171875 1564.82421875 C-1381.56925961 1557.8651382 -1376.04211077 1550.98347174 -1370.45361328 1544.14111328 C-1367.12967582 1540.05944831 -1363.87968453 1535.93553855 -1360.6875 1531.75 C-1356.42666153 1526.16326042 -1352.02291385 1520.70755753 -1347.57861328 1515.26611328 C-1342.19213711 1508.66328495 -1336.93053122 1501.96691408 -1331.6875 1495.25 C-1325.38006755 1487.16946795 -1319.0050703 1479.1535386 -1312.52392578 1471.21142578 C-1309.03242684 1466.9258874 -1305.5894522 1462.60688616 -1302.1875 1458.25 C-1297.7054989 1452.50989332 -1293.12793443 1446.85306754 -1288.5234375 1441.2109375 C-1285.03219917 1436.92548382 -1281.58931112 1432.60670547 -1278.1875 1428.25 C-1273.7054989 1422.50989332 -1269.12793443 1416.85306754 -1264.5234375 1411.2109375 C-1261.03219821 1406.92548263 -1257.58935928 1402.60666894 -1254.1875 1398.25 C-1249.10152155 1391.73770583 -1243.89653861 1385.3263363 -1238.67578125 1378.921875 C-1236.33028467 1376.04387546 -1234.00148453 1373.15344164 -1231.6875 1370.25 C-1228.83527448 1366.67120755 -1225.95397524 1363.11737282 -1223.0625 1359.5703125 C-1217.93022548 1353.273772 -1212.85164533 1346.94257157 -1207.85229492 1340.54003906 C-1203.80885016 1335.37459131 -1199.66928473 1330.29032265 -1195.52124023 1325.20874023 C-1192.04856422 1320.94688973 -1188.62928291 1316.64865421 -1185.25 1312.3125 C-1180.49517822 1306.21634941 -1175.59719835 1300.24523772 -1170.67041016 1294.28759766 C-1167.00377232 1289.85307755 -1163.37654884 1285.39190655 -1159.796875 1280.88671875 C-1157.01224316 1277.40592895 -1154.19175028 1273.95481217 -1151.375 1270.5 C-1147.28172687 1265.47649091 -1143.23373481 1260.42326101 -1139.25 1255.3125 C-1134.49511162 1249.21639912 -1129.59720035 1243.24524013 -1124.67041016 1237.28759766 C-1121.00377232 1232.85307755 -1117.37654884 1228.39190655 -1113.796875 1223.88671875 C-1111.01224382 1220.40592977 -1108.19181373 1216.95475954 -1105.375 1213.5 C-1101.21494642 1208.39624997 -1097.10777374 1203.25762144 -1093.0625 1198.0625 C-1089.0988986 1192.97636771 -1084.99759715 1188.03365884 -1080.80541992 1183.13500977 C-1077.08941135 1178.77325347 -1073.5471838 1174.29320204 -1070.0300293 1169.77050781 C-1065.67751751 1164.19277049 -1061.17960343 1158.74005972 -1056.67089844 1153.28833008 C-1053.00189263 1148.85065239 -1049.37309933 1144.38564193 -1045.7890625 1139.87890625 C-1041.36024273 1134.33876553 -1036.86942608 1128.84842178 -1032.39306641 1123.34667969 C-1029.65633521 1119.98237286 -1026.9220045 1116.61611672 -1024.1875 1113.25 C-1023.10417893 1111.9166567 -1022.02084558 1110.58332338 -1020.9375 1109.25 C-1020.40125 1108.59 -1019.865 1107.93 -1019.3125 1107.25 C-1017.6875 1105.25 -1016.0625 1103.25 -1014.4375 1101.25 C-1013.90092773 1100.58959717 -1013.36435547 1099.92919434 -1012.81152344 1099.2487793 C-1011.73146984 1097.91949505 -1010.65139183 1096.59023063 -1009.57128906 1095.26098633 C-1006.81257227 1091.86586671 -1004.05431991 1088.47037148 -1001.296875 1085.07421875 C-995.89746268 1078.42494246 -990.49080735 1071.78197809 -985.0625 1065.15625 C-982.09661811 1061.52694716 -979.14183168 1057.88870668 -976.1875 1054.25 C-971.82411064 1048.87582549 -967.44960298 1043.51109629 -963.0625 1038.15625 C-960.09661806 1034.5269471 -957.14184694 1030.88869437 -954.1875 1027.25 C-949.0352905 1020.90476446 -943.86802012 1014.57215326 -938.6875 1008.25 C-937.18735719 1006.41678352 -935.68735918 1004.58344854 -934.1875 1002.75 C-889.1875 947.75 -889.1875 947.75 -886.91796875 944.9765625 C-885.48250065 943.22182216 -884.04756204 941.46664845 -882.61328125 939.7109375 C-877.37414551 933.30001724 -872.11396278 926.90667765 -866.84765625 920.51806641 C-863.55383915 916.52110491 -860.27044603 912.51613121 -857 908.5 C-853.29036609 903.95604322 -849.50227978 899.48295582 -845.70239258 895.01464844 C-842.31444501 891.01961199 -839.03404727 886.94974 -835.78125 882.84375 C-832.83666916 879.19598567 -829.79298467 875.6354602 -826.75390625 872.06640625 C-824.00975467 868.83575688 -821.32002191 865.57301946 -818.6875 862.25 C-815.15866597 857.79746299 -811.50520671 853.46314021 -807.82421875 849.13671875 C-804.90745487 845.70428391 -802.03056574 842.24407185 -799.1875 838.75 C-795.43832511 834.14387085 -791.61564812 829.606104 -787.76904297 825.08154297 C-784.90903062 821.7114901 -782.09494267 818.30973692 -779.3125 814.875 C-775.14826085 809.7555232 -770.83123063 804.78049722 -766.49365234 799.80834961 C-763.24031311 796.07001389 -760.0550424 792.29082601 -756.9375 788.4375 C-753.41080631 784.08061747 -749.71247911 779.92324096 -745.9375 775.78125 C-743.60887947 773.1615519 -741.39187053 770.4748469 -739.1875 767.75 C-735.57600866 763.28579543 -731.80089306 759.01997886 -727.93359375 754.77734375 C-725.62562402 752.18037607 -723.43194137 749.51595987 -721.25 746.8125 C-717.38924863 742.038597 -713.31312925 737.51611572 -709.15625 733 C-706.74371896 730.31262366 -704.4549379 727.56034556 -702.1875 724.75 C-698.34914586 719.99260332 -694.29127641 715.49216082 -690.15234375 710.99609375 C-687.76042703 708.33124834 -685.49495116 705.60168175 -683.25 702.8125 C-679.59178985 698.27683557 -675.74007035 693.9929883 -671.77368164 689.73071289 C-668.78323 686.49806025 -665.94970993 683.18303234 -663.1875 679.75 C-659.5518595 675.23141824 -655.71913598 670.97016671 -651.77124023 666.72827148 C-648.80034372 663.5170095 -645.98788923 660.22372185 -643.25 656.8125 C-638.88609541 651.39091657 -634.2032847 646.32157883 -629.4609375 641.234375 C-625.15644486 636.61646239 -621.04437595 631.84238393 -616.94921875 627.0390625 C-611.36431067 620.49344569 -605.72196039 614.02960493 -599.91015625 607.68359375 C-595.8381196 603.22510722 -591.88907882 598.66502272 -587.9765625 594.06640625 C-582.15505336 587.23072343 -576.2399658 580.51435263 -570.14453125 573.921875 C-567.5190096 571.06677674 -564.9608216 568.16234756 -562.421875 565.23046875 C-560.41485462 562.93866845 -558.36347149 560.69003248 -556.3125 558.4375 C-553.25891133 555.06059018 -550.34320795 551.61782868 -547.5 548.0625 C-542.59746514 541.99679782 -537.26491963 536.36835023 -531.91796875 530.6953125 C-528.97717421 527.57224078 -526.12350823 524.38727908 -523.32421875 521.13671875 C-521.30876228 518.81341213 -519.24901538 516.53251535 -517.1875 514.25 C-514.49766569 511.26937279 -511.82439636 508.27754767 -509.1875 505.25 C-505.79496907 501.35487189 -502.33555799 497.52217237 -498.875 493.6875 C-496.96195851 491.55582519 -495.06862388 489.4098089 -493.1875 487.25 C-489.79375985 483.35348353 -486.33319997 479.51935055 -482.87109375 475.68359375 C-480.97901315 473.57488854 -479.10844242 471.45080199 -477.25 469.3125 C-473.59692044 465.11696779 -469.84244451 461.01626447 -466.09375 456.90625 C-464.10101047 454.70647259 -462.1341186 452.49044782 -460.1875 450.25 C-456.55805059 446.07270917 -452.8227098 441.99462761 -449.09375 437.90625 C-447.10101047 435.70647259 -445.1341186 433.49044782 -443.1875 431.25 C-439.55684292 427.07131921 -435.82031424 422.99183696 -432.08984375 418.90234375 C-430.11808156 416.72539004 -428.17384663 414.53161326 -426.25 412.3125 C-422.81981424 408.36332633 -419.27746482 404.51977695 -415.73461914 400.67211914 C-413.18209547 397.8952363 -410.65774254 395.10027985 -408.1875 392.25 C-404.7807265 388.3191075 -401.25747215 384.49803427 -397.734375 380.671875 C-395.18194857 377.89505943 -392.65766712 375.10019283 -390.1875 372.25 C-386.78005081 368.31832786 -383.25620327 364.49638756 -379.73217773 360.66967773 C-377.20009884 357.91526572 -374.69714732 355.14257501 -372.25 352.3125 C-368.62537911 348.12890143 -364.85364933 344.0856539 -361.09008789 340.02758789 C-358.41348962 337.13635872 -355.76438821 334.23110596 -353.1875 331.25 C-349.63066962 327.13795707 -345.93166316 323.1623038 -342.23706055 319.17456055 C-337.67139615 314.24335742 -333.16997674 309.25693471 -328.6875 304.25 C-321.60505953 296.35084568 -314.44972501 288.52089039 -307.27148438 280.70898438 C-302.5751188 275.59689626 -297.8842486 270.48114844 -293.25 265.3125 C-288.79106085 260.34487617 -284.26311669 255.44316748 -279.73046875 250.54296875 C-276.85355226 247.43217146 -273.98702732 244.31199517 -271.125 241.1875 C-270.67455322 240.69580322 -270.22410645 240.20410645 -269.76000977 239.69750977 C-268.40232037 238.21517684 -267.04486493 236.73263005 -265.6875 235.25 C-259.04407738 227.99348575 -252.38789029 220.7491222 -245.7109375 213.5234375 C-243.73478318 211.38482476 -241.76083632 209.24421448 -239.7890625 207.1015625 C-233.05799027 199.79059645 -226.274778 192.53002989 -219.47265625 185.28515625 C-216.46381385 182.07976788 -213.46214937 178.86780361 -210.46459961 175.65185547 C-208.14872228 173.16747276 -205.83036618 170.68541057 -203.51171875 168.20361328 C-202.26096786 166.86414478 -201.01100793 165.52393739 -199.76171875 164.18310547 C-191.926955 155.7785056 -184.03184275 147.4633075 -175.82250977 139.421875 C-172.92059399 136.56289302 -170.14337195 133.6602835 -167.49554443 130.56321716 C-163.62433328 126.11815985 -159.52448038 121.9391745 -155.35644531 117.77368164 C-154.15246597 116.56466438 -154.15246597 116.56466438 -152.92416382 115.33122253 C-150.29061118 112.68823211 -147.65336147 110.04897073 -145.015625 107.41015625 C-143.16860846 105.5599223 -141.32166549 103.7096149 -139.47479248 101.85923767 C-135.61017201 97.98824509 -131.74312612 94.11968647 -127.875 90.25219727 C-123.42898639 85.80678365 -118.98857556 81.35582807 -114.55076909 76.90222269 C-110.25223165 72.58893866 -105.94808292 68.28129469 -101.64186859 63.97567558 C-99.82395284 62.15658649 -98.00764273 60.33589124 -96.19303131 58.51350594 C-87.34952156 49.63566083 -78.63862746 40.89492337 -68.6875 33.25 C-67.65754515 32.37763859 -66.63407523 31.49748329 -65.62109375 30.60546875 C-46.53982851 14.03253885 -25.58045304 1.734268 0 0 Z " fill="#0D57A5" transform="translate(1949.6875,299.75)"/>
<path d="M0 0 C15.53278627 13.70840052 28.41593948 29.15227925 38.67041016 47.2019043 C39.65074219 48.88413086 39.65074219 48.88413086 40.65087891 50.6003418 C64.58858993 92.71426833 68.29033598 143.94716683 55.67041016 190.2019043 C49.41437822 211.49253354 39.38697765 231.74027734 25.67041016 249.2019043 C25.01427734 250.0784668 24.35814453 250.9550293 23.68212891 251.8581543 C-4.35042987 288.00110386 -44.81188768 310.69891778 -89.32958984 319.2019043 C-90.60318359 319.4494043 -91.87677734 319.6969043 -93.18896484 319.9519043 C-139.63046469 327.25275143 -189.33293951 315.20072973 -227.35375977 287.75830078 C-243.07378445 276.08643193 -256.59461133 262.87063317 -268.32958984 247.2019043 C-268.96767578 246.35885742 -269.60576172 245.51581055 -270.26318359 244.6472168 C-284.45988474 225.17183462 -294.26118491 202.44743379 -299.57958984 179.0144043 C-299.73065186 178.35142334 -299.88171387 177.68844238 -300.03735352 177.00537109 C-302.76265415 164.19968605 -303.70911236 151.55918962 -303.64208984 138.5144043 C-303.64026703 137.77278046 -303.63844421 137.03115662 -303.63656616 136.26705933 C-303.58750413 124.36704039 -302.92790505 112.84317477 -300.32958984 101.2019043 C-300.16330078 100.43491211 -299.99701172 99.66791992 -299.82568359 98.87768555 C-294.4712654 74.88195957 -284.71409653 52.16684107 -270.32958984 32.2019043 C-269.59353516 31.17967773 -268.85748047 30.15745117 -268.09912109 29.10424805 C-258.68882098 16.33869997 -247.93745905 4.84215807 -235.32958984 -4.7980957 C-234.39501953 -5.5715332 -233.46044922 -6.3449707 -232.49755859 -7.1418457 C-165.22577296 -61.71921222 -64.31141236 -55.3952861 0 0 Z " fill="#0D57A5" transform="translate(2299.32958984375,700.798095703125)"/>
</svg>
